<svg width="109" height="105" viewBox="0 0 109 105" fill="none" xmlns="http://www.w3.org/2000/svg">
<g filter="url(#filter0_d_2375_461)">
<path d="M60.2134 12.0709C57.4237 8.13017 51.5763 8.13016 48.7867 12.0709L38.8383 26.1243C37.9501 27.3789 36.6737 28.3063 35.206 28.7633L18.7662 33.882C14.1563 35.3174 12.3494 40.8786 15.2352 44.7495L25.5265 58.5536C26.4453 59.786 26.9329 61.2866 26.914 62.8237L26.702 80.0406C26.6425 84.8684 31.3732 88.3055 35.9464 86.757L52.2551 81.2351C53.7111 80.7421 55.2889 80.7421 56.7449 81.2351L73.0536 86.757C77.6268 88.3055 82.3575 84.8684 82.298 80.0406L82.086 62.8237C82.0671 61.2866 82.5547 59.786 83.4735 58.5536L93.7648 44.7495C96.6506 40.8786 94.8437 35.3174 90.2338 33.882L73.794 28.7633C72.3263 28.3063 71.0498 27.3789 70.1617 26.1243L60.2134 12.0709Z" fill="#D9D9D9"/>
<path d="M60.2134 12.0709C57.4237 8.13017 51.5763 8.13016 48.7867 12.0709L38.8383 26.1243C37.9501 27.3789 36.6737 28.3063 35.206 28.7633L18.7662 33.882C14.1563 35.3174 12.3494 40.8786 15.2352 44.7495L25.5265 58.5536C26.4453 59.786 26.9329 61.2866 26.914 62.8237L26.702 80.0406C26.6425 84.8684 31.3732 88.3055 35.9464 86.757L52.2551 81.2351C53.7111 80.7421 55.2889 80.7421 56.7449 81.2351L73.0536 86.757C77.6268 88.3055 82.3575 84.8684 82.298 80.0406L82.086 62.8237C82.0671 61.2866 82.5547 59.786 83.4735 58.5536L93.7648 44.7495C96.6506 40.8786 94.8437 35.3174 90.2338 33.882L73.794 28.7633C72.3263 28.3063 71.0498 27.3789 70.1617 26.1243L60.2134 12.0709Z" fill="#1E1D1C"/>
</g>
<defs>
<filter id="filter0_d_2375_461" x="0.843262" y="0.115234" width="107.313" height="104.018" filterUnits="userSpaceOnUse" color-interpolation-filters="sRGB">
<feFlood flood-opacity="0" result="BackgroundImageFix"/>
<feColorMatrix in="SourceAlpha" type="matrix" values="0 0 0 0 0 0 0 0 0 0 0 0 0 0 0 0 0 0 127 0" result="hardAlpha"/>
<feOffset dy="4"/>
<feGaussianBlur stdDeviation="6.5"/>
<feComposite in2="hardAlpha" operator="out"/>
<feColorMatrix type="matrix" values="0 0 0 0 0 0 0 0 0 0 0 0 0 0 0 0 0 0 0.51 0"/>
<feBlend mode="normal" in2="BackgroundImageFix" result="effect1_dropShadow_2375_461"/>
<feBlend mode="normal" in="SourceGraphic" in2="effect1_dropShadow_2375_461" result="shape"/>
</filter>
</defs>
</svg>
